first trial
nRows=35
nColumns=38

# SIMM Motion File Header:
name Sujet_05_velo_80.mvnx
datacolumns 38
datarows 35
otherdata 1
range 8.2500 8.8170
endheader
time pelvis_tilt  pelvis_list  pelvis_rotation  pelvis_tx  pelvis_ty  pelvis_tz  hip_flexion_r  hip_adduction_r  hip_rotation_r  knee_angle_r  ankle_angle_r  subtalar_angle_r  mtp_angle_r  hip_flexion_l  hip_adduction_l  hip_rotation_l  knee_angle_l  ankle_angle_l  subtalar_angle_l  mtp_angle_l  lumbar_extension  lumbar_bending  lumbar_rotation  arm_flex_r  arm_add_r  arm_rot_r  elbow_flex_r  pro_sup_r  wrist_flex_r  wrist_dev_r  arm_flex_l  arm_add_l  arm_rot_l  elbow_flex_l  pro_sup_l  wrist_flex_l  wrist_dev_l
8.2500	-4.5320	2.2781	-84.5104	0.0000	1.2500	-0.0000	44.5575	-1.6037	-8.9474	68.6214	-15.6327	1.5239	0.0000	69.1468	2.2329	-13.1174	73.8867	-1.3956	8.4958	-0.0000	-21.9523	0.9785	-3.1258	81.3337	-8.5012	17.2053	3.9703	66.6764	-59.1762	-37.1066	90.6541	-7.0013	26.5998	-1.6171	53.7059	-43.0110	-21.7817	
8.2660	-4.3753	1.7714	-85.1362	0.0000	1.2500	-0.0000	47.3121	-1.2257	-8.8557	73.9470	-15.9097	1.4103	0.0000	65.9715	1.5826	-13.6878	68.8834	-2.4649	9.1595	0.0000	-22.0640	1.1894	-2.8863	81.7648	-8.2605	17.3903	3.9105	67.0680	-59.2050	-36.9715	90.7224	-7.1397	26.3526	-1.5428	53.8005	-43.0370	-21.7236	
8.2830	-4.2153	1.3513	-85.8347	0.0000	1.2500	-0.0000	50.2145	-0.9030	-9.0615	79.0728	-16.2705	1.3778	0.0000	62.4522	0.8406	-14.2927	63.7102	-3.9103	9.8469	0.0000	-22.1794	1.3522	-2.6383	82.2654	-7.9481	17.5571	3.8442	67.5166	-59.2517	-36.8392	90.8084	-7.3200	25.9981	-1.4599	54.0193	-43.0434	-21.6731	
8.3000	-4.0956	0.9333	-86.4782	0.0000	1.2500	-0.0000	53.1644	-0.5825	-9.2634	83.7551	-16.4868	1.4400	0.0000	58.8223	0.1176	-14.9718	58.6072	-5.5097	10.4983	0.0000	-22.2685	1.5325	-2.3942	82.6903	-7.6743	17.7299	3.7724	67.9129	-59.2927	-36.7515	90.8535	-7.5058	25.7387	-1.3979	54.0963	-43.0626	-21.6585	
8.3160	-4.0383	0.4890	-87.0370	0.0000	1.2500	-0.0000	56.1538	-0.2328	-9.4106	87.9398	-16.4886	1.6863	-0.0000	55.0554	-0.5538	-15.7773	53.5002	-7.2862	11.1178	-0.0000	-22.3193	1.7572	-2.1550	83.0030	-7.4814	17.9277	3.6956	68.2193	-59.3209	-36.7259	90.8317	-7.6937	25.6905	-1.3653	53.8751	-43.1061	-21.6971	
8.3330	-4.0226	0.0448	-87.5421	0.0000	1.2500	-0.0000	59.1939	0.1102	-9.5505	91.6734	-16.3392	2.0483	-0.0000	51.1753	-1.1907	-16.6552	48.4698	-9.2214	11.7046	-0.0000	-22.3441	2.0004	-1.9195	83.2420	-7.3303	18.1345	3.6129	68.4730	-59.3435	-36.7449	90.7695	-7.8865	25.7366	-1.3546	53.5120	-43.1623	-21.7720	
8.3500	-4.0277	-0.4032	-87.9573	0.0000	1.2500	-0.0000	62.2184	0.4224	-9.5214	94.8586	-16.0159	2.3135	0.0000	47.4936	-1.7946	-17.4483	43.9716	-11.0302	12.2002	0.0000	-22.3500	2.2481	-1.6961	83.3762	-7.2119	18.3251	3.5233	68.6767	-59.3572	-36.7989	90.6878	-8.0566	25.7301	-1.3726	53.2093	-43.2290	-21.8602	
8.3670	-4.0517	-0.8859	-88.2665	0.0000	1.2500	-0.0000	65.2601	0.7101	-9.1801	97.4925	-15.4416	2.3884	-0.0000	44.0175	-2.4226	-18.0687	40.0115	-12.7017	12.6104	0.0000	-22.3318	2.5122	-1.4833	83.3660	-7.1308	18.5070	3.4047	68.8132	-59.3565	-36.9026	90.5954	-8.1925	25.5993	-1.4381	53.0480	-43.3174	-21.9655	
8.3830	-4.0986	-1.3727	-88.4863	0.0000	1.2500	-0.0000	68.2896	0.9914	-8.6531	99.5790	-14.6992	2.3732	0.0000	40.7387	-3.0610	-18.5853	36.5814	-14.2474	12.9482	0.0000	-22.2933	2.7813	-1.2830	83.2524	-7.0849	18.6730	3.2793	68.8999	-59.3470	-37.0412	90.4836	-8.3048	25.4162	-1.5322	52.9473	-43.4163	-22.0843	
8.4000	-4.1577	-1.7744	-88.6300	0.0000	1.2500	-0.0000	71.1465	1.2590	-8.1733	101.0352	-14.0105	2.3401	-0.0000	37.9459	-3.6207	-19.0439	34.1065	-15.4117	13.1592	0.0000	-22.2540	3.0054	-1.1075	83.1252	-7.0539	18.7751	3.2125	68.9913	-59.3423	-37.1601	90.3469	-8.3987	25.2506	-1.6057	52.8659	-43.4900	-22.1817	
8.4160	-4.2372	-2.0682	-88.6848	0.0000	1.2500	-0.0000	73.8808	1.5092	-7.7717	101.8513	-13.4540	2.2936	-0.0000	35.6977	-4.0823	-19.4499	32.6700	-16.0654	13.1784	-0.0000	-22.2158	3.1759	-0.9608	83.0052	-7.0336	18.7817	3.2452	69.1265	-59.3491	-37.2398	90.1512	-8.4740	25.1224	-1.6414	52.7883	-43.5306	-22.2450	
8.4330	-4.3308	-2.2765	-88.6630	0.0000	1.2500	-0.0000	76.4391	1.7453	-7.3941	102.0381	-12.9509	2.2081	-0.0000	33.9372	-4.4841	-19.7507	32.1741	-16.3350	13.0645	0.0000	-22.1751	3.3011	-0.8389	82.8719	-7.0279	18.7243	3.3365	69.2664	-59.3607	-37.2999	89.9312	-8.5314	25.0121	-1.6566	52.7300	-43.5460	-22.2867	
8.4500	-4.4055	-2.3784	-88.6146	0.0000	1.2500	-0.0000	78.5046	1.9545	-7.1424	101.5461	-12.4854	2.1248	0.0000	32.7801	-4.8146	-19.8877	32.7717	-16.3455	12.9327	0.0000	-22.1433	3.3568	-0.7423	82.7526	-7.0287	18.6493	3.4292	69.3477	-59.3697	-37.3449	89.7851	-8.5785	24.9303	-1.6543	52.6962	-43.5232	-22.3097	
8.4670	-4.4551	-2.3545	-88.5528	0.0000	1.2500	-0.0000	80.0356	2.1388	-7.0416	100.2980	-12.1500	2.0903	0.0000	32.3252	-5.0672	-19.8205	34.6619	-16.0218	12.7545	0.0000	-22.1251	3.3282	-0.6670	82.6606	-7.0347	18.5713	3.5092	69.3377	-59.3731	-37.3741	89.7618	-8.6159	24.8722	-1.6238	52.6941	-43.4404	-22.3105	
8.4840	-4.4856	-2.2241	-88.4639	0.0000	1.2500	-0.0000	81.0737	2.2913	-7.0562	98.3756	-11.8522	2.0711	-0.0000	32.4771	-5.2539	-19.5713	37.6507	-15.4415	12.5351	-0.0000	-22.1160	3.2301	-0.6170	82.5826	-7.0469	18.4758	3.5911	69.2694	-59.3739	-37.3882	89.8126	-8.6435	24.8424	-1.5761	52.7163	-43.3193	-22.2921	
8.5000	-4.4814	-2.0240	-88.3568	0.0000	1.2500	-0.0000	81.4290	2.3796	-7.2007	95.9672	-11.3000	1.9982	0.0000	33.0595	-5.3863	-19.1809	41.3087	-14.9532	12.4426	-0.0000	-22.1133	3.0835	-0.6050	82.5052	-7.0607	18.3658	3.6614	69.1781	-59.3746	-37.3933	89.8892	-8.6686	24.8652	-1.5469	52.7465	-43.2120	-22.2677	
8.5170	-4.4323	-1.7536	-88.2482	0.0000	1.2500	-0.0000	80.9831	2.4130	-7.4811	93.1020	-10.1856	1.7591	-0.0000	34.0805	-5.4794	-18.5978	45.6858	-14.6935	12.5961	-0.0000	-22.1201	2.8843	-0.6362	82.4393	-7.0712	18.2171	3.7072	69.0934	-59.3754	-37.3901	89.9945	-8.7074	24.9811	-1.5575	52.7461	-43.1391	-22.2461	
8.5330	-4.3481	-1.4138	-88.1220	0.0000	1.2500	-0.0000	79.8559	2.3818	-7.8947	89.7470	-8.8172	1.4673	-0.0000	35.5344	-5.5016	-17.8811	50.7467	-14.5154	12.8615	0.0000	-22.1342	2.6365	-0.7052	82.3737	-7.0834	18.0540	3.7413	68.9856	-59.3761	-37.3780	90.1255	-8.7430	25.1499	-1.5865	52.7537	-43.0803	-22.2188	
8.5500	-4.2430	-1.0426	-87.9389	0.0000	1.2500	-0.0000	78.2154	2.2271	-8.4498	85.9941	-7.8251	1.3897	0.0000	37.2214	-5.4018	-17.2420	55.9366	-14.3431	13.0480	-0.0000	-22.1453	2.3733	-0.8084	82.2614	-7.1078	17.9539	3.7880	68.8005	-59.3789	-37.3599	90.2256	-8.7329	25.2742	-1.6050	52.8693	-43.0260	-22.1734	
8.5660	-4.1021	-0.6501	-87.6910	0.0000	1.2500	-0.0000	76.0508	1.9204	-9.2170	81.7898	-7.4449	1.6628	-0.0000	39.0956	-5.1405	-16.7924	61.1701	-14.2530	13.1017	-0.0000	-22.1525	2.1054	-0.9495	82.0569	-7.1493	17.9952	3.8625	68.4733	-59.3862	-37.3310	90.2672	-8.6545	25.2907	-1.6135	53.1590	-42.9785	-22.1034	
8.5830	-3.9386	-0.2269	-87.3870	0.0000	1.2500	-0.0000	73.3747	1.5142	-10.1581	77.1677	-7.4428	2.1497	0.0000	41.1971	-4.7604	-16.4458	66.5496	-14.1752	13.0927	-0.0000	-22.1579	1.8217	-1.1242	81.8060	-7.2022	18.0999	3.9491	68.0685	-59.3956	-37.2961	90.2771	-8.5312	25.2618	-1.6114	53.5569	-42.9356	-22.0153	
8.6000	-3.8094	0.2184	-87.0123	0.0000	1.2500	-0.0000	70.3903	1.0676	-11.1216	72.3544	-7.7483	2.6952	0.0000	43.4531	-4.3407	-16.1114	71.7902	-13.8219	13.0254	-0.0000	-22.1556	1.5220	-1.3169	81.5981	-7.2612	18.1095	4.0264	67.7259	-59.4019	-37.2735	90.2798	-8.3897	25.2782	-1.5685	53.9643	-42.8812	-21.9157	
8.6160	-3.7281	0.6927	-86.5444	0.0000	1.2500	-0.0000	67.1004	0.5844	-12.1669	67.3552	-8.3797	3.3065	-0.0000	45.8514	-3.8851	-15.8154	76.8468	-13.0003	12.9424	-0.0000	-22.1473	1.2013	-1.5331	81.4787	-7.3166	17.9527	4.0860	67.5188	-59.4052	-37.2648	90.2696	-8.2376	25.3605	-1.4545	54.3702	-42.7963	-21.7894	
8.6330	-3.6786	1.1897	-86.0047	0.0000	1.2500	-0.0000	63.5046	0.0856	-13.2737	62.1554	-9.3328	3.9710	-0.0000	48.4030	-3.3864	-15.5519	81.7476	-11.9057	12.8034	-0.0000	-22.1336	0.8647	-1.7677	81.4009	-7.3783	17.7003	4.1365	67.3739	-59.4053	-37.2684	90.2509	-8.0668	25.4879	-1.3012	54.7851	-42.6998	-21.6515	
8.6500	-3.6731	1.6809	-85.4442	0.0000	1.2500	-0.0000	59.8011	-0.3827	-14.1515	56.9819	-10.4961	4.5057	-0.0000	51.0729	-2.8932	-15.1678	86.2909	-10.8308	12.4890	-0.0000	-22.1063	0.5276	-1.9899	81.3142	-7.4696	17.4065	4.1816	67.2120	-59.3954	-37.2976	90.2634	-7.8790	25.6891	-1.1720	55.1433	-42.6316	-21.5535	
8.6660	-3.7392	2.1694	-84.8597	0.0000	1.2500	-0.0000	55.9440	-0.8559	-14.6938	51.7572	-11.8979	4.8431	0.0000	53.9046	-2.4146	-14.5376	90.4565	-9.8342	11.8721	-0.0000	-22.0562	0.1840	-2.1923	81.2200	-7.5842	17.0440	4.2111	67.0317	-59.3710	-37.3657	90.3431	-7.6714	26.0176	-1.0752	55.4007	-42.6151	-21.5216	
8.6830	-3.8489	2.6537	-84.2529	0.0000	1.2500	-0.0000	51.9735	-1.3404	-15.0220	46.6002	-13.4991	5.0720	0.0000	56.8580	-1.9149	-13.7945	94.2408	-8.8530	11.0922	-0.0000	-21.9931	-0.1605	-2.3828	81.1156	-7.7263	16.6392	4.2343	66.8336	-59.3361	-37.4592	90.4525	-7.4454	26.4202	-1.0020	55.6016	-42.6267	-21.5293	
8.7000	-3.9334	3.0975	-83.6826	0.0000	1.2500	-0.0000	48.2147	-1.7823	-15.1502	42.0436	-15.0806	5.2428	0.0000	59.7722	-1.3839	-13.1574	97.4727	-7.9958	10.4281	0.0000	-21.9356	-0.4727	-2.5526	80.9433	-7.9352	16.3262	4.2838	66.5420	-59.2974	-37.5518	90.5223	-7.2095	26.7656	-0.9892	55.8126	-42.6361	-21.5488	
8.7160	-3.9680	3.4806	-83.1430	0.0000	1.2500	-0.0000	44.6982	-2.1991	-14.9595	38.1589	-16.7270	5.4164	0.0000	62.6259	-0.8206	-12.7034	100.1345	-7.2916	9.9661	0.0000	-21.8824	-0.7398	-2.6967	80.6495	-8.2724	16.1924	4.3811	66.0613	-59.2639	-37.6473	90.5231	-6.9486	27.0138	-1.0818	56.0668	-42.6377	-21.5867	
8.7330	-3.9794	3.8221	-82.6409	0.0000	1.2500	-0.0000	41.3895	-2.6192	-14.5403	34.8765	-18.3578	5.5546	-0.0000	65.4391	-0.2423	-12.3481	102.2585	-6.7095	9.6025	0.0000	-21.8326	-0.9748	-2.8197	80.2858	-8.6761	16.1476	4.5056	65.4882	-59.2269	-37.7421	90.4850	-6.6791	27.2047	-1.2353	56.3306	-42.6370	-21.6362	
8.7500	-3.9780	4.1436	-82.2532	0.0000	1.2500	-0.0000	38.5200	-2.9844	-14.1868	32.4996	-19.4997	5.5340	-0.0000	68.1121	0.3147	-12.0504	103.7557	-6.2723	9.3306	-0.0000	-21.8038	-1.1826	-2.9267	79.9562	-9.0036	16.0625	4.6268	65.0353	-59.1667	-37.7997	90.4298	-6.4579	27.3281	-1.3514	56.5706	-42.6199	-21.6485	
8.7660	-3.9539	4.4691	-82.0326	0.0000	1.2500	-0.0000	36.1195	-3.2747	-13.9986	31.0984	-19.9344	5.2496	-0.0000	70.7094	0.8327	-11.7789	104.6229	-6.0826	9.1960	0.0000	-21.8062	-1.3763	-3.0203	79.6797	-9.1970	15.8591	4.7390	64.7978	-59.0647	-37.7955	90.3412	-6.3072	27.3700	-1.3898	56.7852	-42.5710	-21.5875	
8.7830	-3.9192	4.7745	-81.9267	0.0000	1.2500	-0.0000	34.1621	-3.5060	-13.8367	30.5914	-19.8696	4.7799	-0.0000	73.1672	1.3175	-11.5379	104.8683	-6.0431	9.1381	0.0000	-21.8275	-1.5422	-3.0981	79.4411	-9.3168	15.6191	4.8477	64.6804	-58.9399	-37.7540	90.2381	-6.2055	27.3452	-1.3894	56.9769	-42.5057	-21.4893	
8.8000	-3.9168	5.0085	-81.8556	0.0000	1.2500	-0.0000	32.7964	-3.6509	-13.6254	31.0526	-19.4670	4.2503	0.0000	75.1936	1.7719	-11.3294	104.4169	-5.8702	9.0102	-0.0000	-21.8524	-1.6455	-3.1579	79.2952	-9.3988	15.4550	4.9370	64.6108	-58.8294	-37.7122	90.1950	-6.1440	27.2867	-1.3702	57.1187	-42.4562	-21.4137	
8.8170	-3.9743	5.1797	-81.7872	0.0000	1.2500	-0.0000	32.1195	-3.7020	-13.3289	32.6268	-18.6596	3.6359	-0.0000	76.7481	2.2230	-11.0817	103.1843	-5.4475	8.7472	-0.0000	-21.8788	-1.6801	-3.2075	79.2755	-9.4398	15.4196	5.0062	64.5768	-58.7466	-37.6893	90.2626	-6.1287	27.1694	-1.3364	57.2293	-42.4327	-21.3802	
